 http://leetleech.org/images/11789677135462540174.jpg


Format : AVI
Format/Info : Audio Video Interleave
File size : 702 MiB
Duration : 1h 39mn
Overall bit rate : 991 Kbps
Writing library : VirtualDub build 32842/release

Video
ID : 0
Format : MPEG-4 Visual
Format profile : Advanced Simple@L5
Format settings, BVOP : 4
Format settings, QPel : No
Format settings, GMC : No warppoints
Format settings, Matrix : Default (H.263)
Muxing mode : Packed bitstream
Codec ID : XVID
Codec ID/Hint : XviD
Duration : 1h 39mn
Bit rate : 854 Kbps
Width : 640 pixels
Height : 352 pixels
Display aspect ratio : 16:9
Frame rate : 23.976 fps
Color space : YUV
Chroma subsampling : 4:2:0
Bit depth : 8 bits
Scan type : Progressive
Compression mode : Lossy
Bits/(Pixel*Frame) : 0.158
Stream size : 605 MiB (86%)
Writing library : XviD 64

Audio
ID : 1
Format : MPEG Audio
Format version : Version 1
Format profile : Layer 3
Mode : Joint stereo
Mode extension : MS Stereo
Codec ID : 55
Codec ID/Hint : MP3
Duration : 1h 39mn
Bit rate mode : Constant
Bit rate : 128 Kbps
Channel(s) : 2 channels
Sampling rate : 44.1 KHz
Compression mode : Lossy
Stream size : 90.7 MiB (13%)
Alignment : Split accross interleaves
Interleave, duration : 42 ms (1.00 video frame)
Interleave, preload duration : 500 ms
Writing library : LAME3.98



Plot

Wes and Fi are empty. While their love for each other burns strong, artistically their hearts have been locked in a box for years. Wes is a burned out photographer paying the bills by shooting weddings. Fi is the writer's-blocked author of a series of zombie novellas called, The Dead Survive.

 
http://www.shotpix.com/images/35937992693135289961.png
httphttp://www.shotpix.com/images/59609012561130401725.png://www.shotpix.com/images/88677871485924027457.png
